<svg width="32" height="32" viewBox="0 0 32 32" fill="none" xmlns="http://www.w3.org/2000/svg">
<g clip-path="url(#clip0)">
<path d="M16.0002 23.9994C19.6821 23.9994 22.6669 21.0146 22.6669 17.3327C22.6669 13.6508 19.6821 10.666 16.0002 10.666C12.3183 10.666 9.3335 13.6508 9.3335 17.3327C9.3335 21.0146 12.3183 23.9994 16.0002 23.9994Z" fill="#999999"/>
<path d="M29.3333 6.66602H25.1048C24.5703 6.66602 24.0684 6.45771 23.6901 6.08008L21.2526 3.64258C20.6231 3.01302 19.7858 2.66602 18.8952 2.66602H13.1048C12.2142 2.66602 11.3769 3.01302 10.7474 3.64258L8.30987 6.08008C7.93162 6.45771 7.42969 6.66602 6.89519 6.66602H2.66669C1.19594 6.66602 0 7.86196 0 9.33264V26.666C0 28.1367 1.19594 29.3327 2.66669 29.3327H29.3334C30.8041 29.3327 32.0001 28.1367 32.0001 26.666V9.33264C32 7.86196 30.8041 6.66602 29.3333 6.66602ZM16 25.3327C11.5886 25.3327 8 21.7441 8 17.3326C8 12.9212 11.5886 9.33264 16 9.33264C20.4114 9.33264 24 12.9212 24 17.3326C24 21.7441 20.4114 25.3327 16 25.3327ZM26.6667 13.3326C25.9317 13.3326 25.3334 12.7343 25.3334 11.9993C25.3334 11.2643 25.9317 10.666 26.6667 10.666C27.4017 10.666 28 11.2643 28 11.9993C28 12.7343 27.4017 13.3326 26.6667 13.3326Z" fill="#999999"/>
</g>
<defs>
<clipPath id="clip0">
<rect width="32" height="32" fill="white"/>
</clipPath>
</defs>
</svg>
