<svg width="20" height="20" viewBox="0 0 20 20" fill="none" xmlns="http://www.w3.org/2000/svg">
<circle cx="9.99991" cy="9.99918" r="7.94564" fill="white" stroke="#C4C4C4" stroke-width="0.95082"/>
<circle cx="10" cy="10" r="10" fill="#00904A"/>
<path d="M14.4462 6.93444C14.3013 6.78748 14.0658 6.78748 13.9209 6.93444L8.6649 12.2689L6.35397 9.94124C6.20903 9.79428 5.97361 9.79428 5.82868 9.94124C5.68374 10.0882 5.68374 10.3261 5.82868 10.4727L8.40333 13.0657C8.5468 13.2108 8.78553 13.2108 8.929 13.0657L14.4462 7.4659C14.5915 7.31931 14.5915 7.08103 14.4462 6.93444C14.3013 6.78748 14.5915 7.08103 14.4462 6.93444Z" fill="white"/>
<path d="M14.4462 6.93444C14.3013 6.78748 14.0658 6.78748 13.9209 6.93444L8.6649 12.2689L6.35397 9.94124C6.20903 9.79428 5.97361 9.79428 5.82868 9.94124C5.68374 10.0882 5.68374 10.3261 5.82868 10.4727L8.40333 13.0657C8.5468 13.2108 8.78553 13.2108 8.929 13.0657L14.4462 7.4659C14.5915 7.31931 14.5915 7.08103 14.4462 6.93444ZM14.4462 6.93444C14.3013 6.78748 14.5915 7.08103 14.4462 6.93444Z" stroke="white" stroke-width="1.2"/>
</svg>
