<svg width="26" height="30" viewBox="0 0 26 30" fill="none" xmlns="http://www.w3.org/2000/svg">
<path d="M24.9238 7.87924L13.2051 1.11354C13.1427 1.07755 13.072 1.05859 13 1.05859C12.928 1.05859 12.8573 1.07755 12.7949 1.11354L1.07617 7.87924C1.01382 7.91524 0.962045 7.96702 0.926047 8.02937C0.890048 8.09171 0.871096 8.16244 0.871094 8.23444V21.7661C0.871096 21.8381 0.890048 21.9088 0.926047 21.9711C0.962045 22.0335 1.01382 22.0853 1.07617 22.1213L12.7949 28.887C12.8573 28.9229 12.928 28.9419 13 28.9419C13.072 28.9419 13.1427 28.9229 13.2051 28.887L24.9238 22.1211C24.9862 22.0851 25.038 22.0333 25.074 21.971C25.11 21.9086 25.1289 21.8379 25.1289 21.7659V8.23444C25.1289 8.16244 25.11 8.09171 25.074 8.02937C25.038 7.96702 24.9862 7.91524 24.9238 7.87924ZM13 1.94224L17.9233 4.78467L7.02566 11.0764L2.10238 8.23397L13 1.94224ZM12.5898 27.8215L1.69141 21.5293V8.94389L12.5898 15.2361V27.8215ZM13 14.5256L7.84604 11.55L18.7437 5.25829L23.8976 8.23397L13 14.5256ZM24.3086 21.5293L13.4102 27.8215V15.2361L24.3086 8.94389V21.5293Z" fill="white" stroke="white"/>
</svg>
